<svg width="691" height="154" viewBox="0 0 691 154" fill="none" xmlns="http://www.w3.org/2000/svg">
<path d="M85.9297 92.6668C94.5773 92.6668 101.587 85.586 101.587 76.8514C101.587 68.1167 94.5773 61.0359 85.9297 61.0359C77.2822 61.0359 70.272 68.1167 70.272 76.8514C70.272 85.586 77.2822 92.6668 85.9297 92.6668Z" fill="#EC5242"/>
<path fill-rule="evenodd" clip-rule="evenodd" d="M85.93 44.6952C106.953 44.6952 126.482 47.7421 141.207 52.8625C158.949 59.0321 169.857 68.3836 169.857 76.8514C169.857 85.6754 158.297 95.6101 139.244 101.986C124.84 106.806 105.886 109.323 85.93 109.323C65.4698 109.323 46.0951 106.961 31.5289 101.933C13.0999 95.5707 2 85.5074 2 76.8514C2 68.4523 12.4152 59.173 29.9075 53.0129C44.6875 47.808 64.6992 44.6952 85.9272 44.6952H85.93Z" stroke="#EC5242" stroke-width="4"/>
<path fill-rule="evenodd" clip-rule="evenodd" d="M58.2163 60.8659C68.7189 42.4713 81.0879 26.9052 92.8358 16.5787C106.99 4.13678 120.46 -0.735821 127.722 3.49398C135.29 7.90221 138.035 22.9812 133.985 42.8367C130.926 57.8486 123.612 75.6902 113.643 93.1517C103.421 111.054 91.7168 126.827 80.1291 137.058C65.4661 150.005 51.2899 154.69 43.8664 150.366C36.6628 146.173 33.9081 132.422 37.3638 114.038C40.2836 98.5054 47.6111 79.4402 58.2129 60.8656L58.2163 60.8659Z" stroke="#EC5242" stroke-width="4"/>
<path d="M58.2426 93.1986L59.9778 92.2041L59.9777 92.204L58.2426 93.1986ZM37.5464 40.7857L35.5829 41.166L35.583 41.1663L37.5464 40.7857ZM43.7462 3.7222L44.7557 5.44874L44.7558 5.44868L43.7462 3.7222ZM80.6191 17.8898L79.2838 19.3787L79.2838 19.3788L80.6191 17.8898ZM113.617 60.8193L111.881 61.8138L111.881 61.8138L113.617 60.8193ZM134.539 112.074L136.502 111.69L136.502 111.69L134.539 112.074ZM127.844 150.454L126.834 148.727L126.834 148.727L127.844 150.454ZM93.4363 138.001L94.7484 136.492L94.7483 136.491L93.4363 138.001ZM59.9777 92.204C49.5294 73.9766 42.4525 55.5816 39.5099 40.405L35.583 41.1663C38.6267 56.8647 45.8913 75.6731 56.5074 94.1933L59.9777 92.204ZM39.5099 40.4053C37.7391 31.2637 37.5046 23.3117 38.546 17.2059C39.6 11.0262 41.8822 7.12883 44.7557 5.44874L42.7367 1.99566C38.3549 4.55766 35.7357 9.89195 34.6029 16.5334C33.4575 23.2487 33.7507 31.7074 35.5829 41.166L39.5099 40.4053ZM44.7558 5.44868C47.7667 3.68801 52.511 3.64429 58.6843 5.97191C64.7851 8.27219 71.9047 12.7607 79.2838 19.3787L81.9545 16.4009C74.3256 9.55879 66.7891 4.75289 60.0955 2.22911C53.4745 -0.267324 47.2863 -0.66477 42.7366 1.99572L44.7558 5.44868ZM79.2838 19.3788C90.4241 29.3697 101.951 44.488 111.881 61.8138L115.352 59.8247C105.285 42.2605 93.5084 26.7629 81.9544 16.4009L79.2838 19.3788ZM111.881 61.8138C122.074 79.598 129.646 97.5048 132.577 112.459L136.502 111.69C133.455 96.1446 125.661 77.8115 115.352 59.8247L111.881 61.8138ZM132.577 112.459C134.433 121.933 134.587 130.182 133.424 136.513C132.247 142.92 129.803 146.991 126.834 148.727L128.853 152.18C133.301 149.58 136.096 144.109 137.358 137.236C138.634 130.286 138.427 121.514 136.502 111.69L132.577 112.459ZM126.834 148.727C123.972 150.401 119.576 150.523 113.877 148.498C108.233 146.492 101.643 142.485 94.7484 136.492L92.1242 139.51C99.2714 145.723 106.287 150.046 112.537 152.267C118.732 154.468 124.518 154.715 128.853 152.18L126.834 148.727ZM94.7483 136.491C83.0917 126.36 70.5315 110.617 59.9778 92.2041L56.5074 94.1932C67.226 112.894 80.0523 129.018 92.1243 139.511L94.7483 136.491Z" fill="#EC5242"/>
<path d="M254.846 44.7212V47.5113C254.846 51.3478 254.346 54.7891 253.346 57.835C252.346 60.8809 250.916 63.4735 249.056 65.6126C247.22 67.7518 245.011 69.391 242.43 70.5303C239.849 71.6464 236.989 72.2044 233.85 72.2044C230.734 72.2044 227.886 71.6464 225.305 70.5303C222.747 69.391 220.527 67.7518 218.643 65.6126C216.76 63.4735 215.295 60.8809 214.249 57.835C213.226 54.7891 212.714 51.3478 212.714 47.5113V44.7212C212.714 40.8847 213.226 37.4551 214.249 34.4324C215.272 31.3864 216.714 28.7939 218.574 26.6548C220.457 24.4924 222.678 22.8531 225.235 21.7371C227.816 20.5977 230.664 20.0281 233.78 20.0281C236.919 20.0281 239.779 20.5977 242.36 21.7371C244.941 22.8531 247.161 24.4924 249.021 26.6548C250.882 28.7939 252.312 31.3864 253.311 34.4324C254.334 37.4551 254.846 40.8847 254.846 44.7212ZM246.092 47.5113V44.6514C246.092 41.8147 245.813 39.3152 245.255 37.1528C244.72 34.9672 243.918 33.1419 242.848 31.6771C241.802 30.189 240.511 29.0729 238.977 28.3289C237.442 27.5616 235.71 27.1779 233.78 27.1779C231.85 27.1779 230.13 27.5616 228.618 28.3289C227.107 29.0729 225.817 30.189 224.747 31.6771C223.701 33.1419 222.898 34.9672 222.34 37.1528C221.782 39.3152 221.503 41.8147 221.503 44.6514V47.5113C221.503 50.348 221.782 52.8592 222.34 55.0448C222.898 57.2305 223.712 59.079 224.782 60.5903C225.875 62.0784 227.177 63.2061 228.688 63.9734C230.199 64.7174 231.92 65.0895 233.85 65.0895C235.803 65.0895 237.535 64.7174 239.047 63.9734C240.558 63.2061 241.837 62.0784 242.883 60.5903C243.929 59.079 244.72 57.2305 245.255 55.0448C245.813 52.8592 246.092 50.348 246.092 47.5113Z" fill="#EC5242"/>
<path d="M598.84 65.508C600.212 65.508 601.444 65.2406 602.537 64.7058C603.653 64.1478 604.548 63.3805 605.223 62.4039C605.92 61.4274 606.304 60.2997 606.374 59.0208H614.291C614.244 61.4622 613.523 63.6827 612.128 65.6824C610.733 67.682 608.885 69.2747 606.583 70.4606C604.281 71.6231 601.735 72.2044 598.945 72.2044C596.062 72.2044 593.55 71.7161 591.411 70.7396C589.272 69.7398 587.493 68.3679 586.075 66.6241C584.657 64.8802 583.587 62.8689 582.866 60.5903C582.169 58.3117 581.82 55.8702 581.82 53.2661V52.0454C581.82 49.4412 582.169 46.9998 582.866 44.7212C583.587 42.4193 584.657 40.3964 586.075 38.6525C587.493 36.9087 589.272 35.5484 591.411 34.5719C593.55 33.5721 596.05 33.0722 598.91 33.0722C601.933 33.0722 604.583 33.6767 606.862 34.8858C609.141 36.0716 610.931 37.7341 612.233 39.8732C613.558 41.9891 614.244 44.4538 614.291 47.2672H606.374C606.304 45.8721 605.955 44.6165 605.327 43.5005C604.723 42.3611 603.862 41.4543 602.746 40.78C601.654 40.1057 600.34 39.7686 598.805 39.7686C597.108 39.7686 595.701 40.1174 594.585 40.8149C593.469 41.4892 592.597 42.4193 591.969 43.6051C591.342 44.7677 590.888 46.0814 590.609 47.5462C590.353 48.9878 590.225 50.4875 590.225 52.0454V53.2661C590.225 54.8239 590.353 56.3353 590.609 57.8001C590.865 59.265 591.307 60.5787 591.934 61.7412C592.586 62.8806 593.469 63.799 594.585 64.4965C595.701 65.1708 597.12 65.508 598.84 65.508Z" fill="#EC5242"/>
<path fill-rule="evenodd" clip-rule="evenodd" d="M271.203 71.5069V45.7143C271.583 44.8324 272.083 44.0713 272.703 43.4307C273.447 42.6634 274.366 42.0821 275.458 41.6868C276.551 41.2683 277.818 41.059 279.26 41.059C279.841 41.059 280.423 41.0823 281.004 41.1288C281.608 41.1753 282.166 41.2451 282.678 41.3381L282.748 33.5256C282.446 33.4093 281.992 33.3047 281.388 33.2117C280.806 33.1187 280.26 33.0722 279.748 33.0722C277.865 33.0722 276.202 33.5023 274.761 34.3626C273.343 35.2229 272.157 36.4204 271.203 37.955C271.154 38.0369 271.105 38.1195 271.056 38.2028L270.82 33.7697H262.798V71.5069H271.203ZM271.203 40.9544V45.7143C271.142 45.8567 271.084 46.0024 271.029 46.1511C270.634 47.2207 270.401 48.4181 270.331 49.7435L268.413 49.883C268.413 47.5113 268.646 45.3141 269.111 43.2912C269.518 41.5212 270.103 39.9381 270.866 38.5419C270.928 38.4276 270.992 38.3146 271.056 38.2028L271.203 40.9544Z" fill="#EC5242"/>
<path d="M270.331 49.7435C270.401 48.4181 270.634 47.2207 271.029 46.1511C271.084 46.0024 271.142 45.8567 271.203 45.7143V40.9544L271.056 38.2028C270.992 38.3146 270.928 38.4276 270.866 38.5419C270.103 39.9381 269.518 41.5212 269.111 43.2912C268.646 45.3141 268.413 47.5113 268.413 49.883L270.331 49.7435Z" fill="#EC5242"/>
<path fill-rule="evenodd" clip-rule="evenodd" d="M308.309 67.7821C307.976 68.1459 307.617 68.5039 307.232 68.8562C306.162 69.8328 304.872 70.6349 303.36 71.2627C301.872 71.8905 300.152 72.2044 298.198 72.2044C295.734 72.2044 293.536 71.7161 291.607 70.7396C289.677 69.7398 288.165 68.4028 287.073 66.7287C285.98 65.0313 285.433 63.1131 285.433 60.9739C285.433 58.9743 285.805 57.2072 286.549 55.6726C287.317 54.1148 288.433 52.8127 289.898 51.7664C291.386 50.72 293.199 49.9295 295.338 49.3947C297.478 48.8367 299.919 48.5577 302.663 48.5577H308.034V53.7544H303.29C301.733 53.7544 300.361 53.9055 299.175 54.2078C297.989 54.4868 297.001 54.9053 296.21 55.4633C295.42 56.0214 294.827 56.6957 294.432 57.4862C294.036 58.2768 293.839 59.172 293.839 60.1718C293.839 61.1716 294.071 62.09 294.536 62.9271C295.001 63.7409 295.676 64.3803 296.559 64.8453C297.466 65.3104 298.559 65.5429 299.838 65.5429C301.558 65.5429 303.058 65.1941 304.337 64.4965C305.639 63.7758 306.662 62.9038 307.406 61.8808C307.654 61.532 307.863 61.1897 308.034 60.8538V53.7544H309.324L309.254 48.5577H308.034V45.9419C308.034 44.5933 307.79 43.4307 307.301 42.4541C306.813 41.4776 306.069 40.7219 305.069 40.1871C304.093 39.6523 302.86 39.3849 301.372 39.3849C300 39.3849 298.815 39.6175 297.815 40.0825C296.815 40.5475 296.036 41.1753 295.478 41.9659C294.92 42.7564 294.641 43.6516 294.641 44.6514H286.27C286.27 43.1633 286.631 41.7217 287.352 40.3266C288.072 38.9315 289.119 37.6876 290.491 36.5948C291.862 35.5019 293.502 34.6416 295.408 34.0138C297.315 33.3861 299.454 33.0722 301.826 33.0722C304.662 33.0722 307.173 33.5488 309.359 34.5021C311.568 35.4554 313.3 36.897 314.556 38.8269C315.835 40.7335 316.474 43.1284 316.474 46.0116V62.7876C316.474 64.5082 316.59 66.0544 316.823 67.4262C317.079 68.7748 317.439 69.949 317.904 70.9488V71.5069H309.289C308.894 70.6001 308.58 69.4491 308.348 68.054C308.334 67.9632 308.321 67.8726 308.309 67.7821Z" fill="#EC5242"/>
<path d="M309.324 53.7544L309.254 48.5577H308.034V53.7544H309.324Z" fill="#EC5242"/>
<path fill-rule="evenodd" clip-rule="evenodd" d="M333.599 71.5069V44.6879C333.868 44.168 334.17 43.6791 334.506 43.2214C335.296 42.1751 336.261 41.3497 337.4 40.7452C338.54 40.1406 339.83 39.8383 341.272 39.8383C342.737 39.8383 343.957 40.0709 344.934 40.5359C345.934 40.9777 346.689 41.7333 347.201 42.8029C347.736 43.8492 348.003 45.2792 348.003 47.0928V71.5069H356.443V47.1277C356.443 44.5468 356.164 42.3728 355.606 40.6056C355.048 38.8153 354.234 37.3621 353.165 36.246C352.119 35.1299 350.851 34.3277 349.363 33.8395C347.898 33.3279 346.259 33.0722 344.446 33.0722C342.19 33.0722 340.144 33.5139 338.307 34.3975C336.47 35.2578 334.889 36.4901 333.564 38.0945C333.504 38.1682 333.445 38.2426 333.386 38.3177L333.111 33.7697H325.193V71.5069H333.599ZM333.599 41.8263V44.6879C333.253 45.3567 332.962 46.0769 332.727 46.8487C332.308 48.2205 332.099 49.6854 332.099 51.2432L329.379 51.2083C329.402 48.5344 329.774 46.0814 330.495 43.8492C331.146 41.8961 332.01 40.1833 333.089 38.7108C333.186 38.5778 333.285 38.4468 333.386 38.3177L333.599 41.8263Z" fill="#EC5242"/>
<path d="M329.379 51.2083L332.099 51.2432C332.099 49.6854 332.308 48.2205 332.727 46.8487C332.962 46.0769 333.253 45.3567 333.599 44.6879V41.8263L333.386 38.3177C333.285 38.4468 333.186 38.5778 333.089 38.7108C332.01 40.1833 331.146 41.8961 330.495 43.8492C329.774 46.0814 329.402 48.5344 329.379 51.2083Z" fill="#EC5242"/>
<path fill-rule="evenodd" clip-rule="evenodd" d="M396.831 33.7697H389.193L388.846 37.639C387.759 36.2588 386.444 35.1783 384.903 34.3975C383.183 33.5139 381.102 33.0722 378.66 33.0722C376.312 33.0722 374.208 33.5372 372.347 34.4673C370.487 35.3741 368.906 36.6878 367.604 38.4084C366.302 40.1057 365.302 42.1402 364.605 44.5119C363.907 46.8603 363.558 49.4645 363.558 52.3244V53.0568C363.558 55.8005 363.907 58.3465 364.605 60.6949C365.302 63.0201 366.302 65.043 367.604 66.7636C368.929 68.4842 370.511 69.8211 372.347 70.7745C374.208 71.7278 376.289 72.2044 378.59 72.2044C380.939 72.2044 382.973 71.7626 384.694 70.8791C386.126 70.1535 387.37 69.1769 388.426 67.9495V70.6349C388.426 72.6113 388.054 74.2854 387.31 75.6573C386.566 77.0291 385.508 78.0638 384.136 78.7613C382.787 79.4821 381.148 79.8425 379.218 79.8425C377.428 79.8425 375.719 79.4705 374.091 78.7265C372.464 77.9824 370.976 76.8082 369.627 75.2039L365.686 80.1564C366.779 81.6445 368.139 82.842 369.766 83.7488C371.417 84.6788 373.115 85.3531 374.859 85.7717C376.626 86.1902 378.23 86.3995 379.672 86.3995C383.066 86.3995 386.054 85.7717 388.635 84.5161C391.216 83.2838 393.227 81.4818 394.669 79.1101C396.11 76.7385 396.831 73.8553 396.831 70.4606V33.7697ZM388.426 60.8372V67.9495C388.435 67.9392 388.443 67.9289 388.452 67.9186C388.673 67.6608 388.885 67.3921 389.088 67.1123C390.274 65.4847 391.228 63.5549 391.948 61.3227C392.669 59.0906 393.181 56.6259 393.483 53.9287V51.592C393.157 48.825 392.658 46.3139 391.983 44.0585C391.332 41.7798 390.425 39.8267 389.263 38.1991C389.255 38.1881 389.247 38.1771 389.239 38.166C389.112 37.9858 388.98 37.8101 388.846 37.639L388.426 42.3146V44.3487C388.114 43.7499 387.754 43.1997 387.345 42.6983C386.624 41.7915 385.717 41.0939 384.624 40.6056C383.531 40.0941 382.241 39.8383 380.753 39.8383C379.241 39.8383 377.928 40.1639 376.812 40.8149C375.696 41.4659 374.777 42.3611 374.056 43.5005C373.359 44.6398 372.836 45.9651 372.487 47.4765C372.138 48.9878 371.964 50.6038 371.964 52.3244V53.0568C371.964 54.7774 372.127 56.3818 372.452 57.8699C372.801 59.358 373.324 60.6717 374.022 61.811C374.742 62.9271 375.649 63.8106 376.742 64.4617C377.858 65.0895 379.172 65.4034 380.683 65.4034C382.659 65.4034 384.275 64.9848 385.531 64.1478C386.788 63.325 387.753 62.2215 388.426 60.8372ZM389.926 55.9516V49.6388C389.786 48.267 389.495 46.9882 389.054 45.8024C388.884 45.3206 388.689 44.8638 388.469 44.432C388.454 44.4041 388.44 44.3763 388.426 44.3487V60.8372C388.426 60.8373 388.426 60.8372 388.426 60.8372C388.437 60.8132 388.449 60.7889 388.461 60.7647C389.158 59.3231 389.647 57.7187 389.926 55.9516Z" fill="#EC5242"/>
<path d="M391.983 44.0585C391.332 41.7798 390.425 39.8267 389.263 38.1991L389.239 38.166C389.112 37.9858 388.98 37.8101 388.846 37.639L388.426 42.3146V44.3487L388.469 44.432C388.689 44.8638 388.884 45.3206 389.054 45.8024C389.495 46.9882 389.786 48.267 389.926 49.6388V55.9516C389.647 57.7187 389.158 59.3231 388.461 60.7647L388.426 60.8372V67.9495L388.452 67.9186C388.673 67.6608 388.885 67.3921 389.088 67.1123C390.274 65.4847 391.228 63.5549 391.948 61.3227C392.669 59.0906 393.181 56.6259 393.483 53.9287V51.592C393.157 48.825 392.658 46.3139 391.983 44.0585Z" fill="#EC5242"/>
<path fill-rule="evenodd" clip-rule="evenodd" d="M414.619 70.8442C416.874 71.751 419.397 72.2044 422.187 72.2044C424.652 72.2044 426.814 71.8673 428.674 71.193C430.557 70.5187 432.15 69.6468 433.452 68.5772C434.754 67.4844 435.812 66.345 436.626 65.1592L432.197 60.8693C431.034 62.3574 429.662 63.5084 428.081 64.3222C426.5 65.136 424.698 65.5429 422.675 65.5429C421.071 65.5429 419.641 65.2522 418.385 64.6709C417.13 64.0664 416.06 63.241 415.177 62.1947C414.293 61.1483 413.619 59.9276 413.154 58.5325C412.823 57.4701 412.616 56.3424 412.533 55.1495H437.289V51.5571C437.289 48.8367 436.952 46.3488 436.277 44.0934C435.626 41.838 434.627 39.8965 433.278 38.2689C431.953 36.618 430.278 35.3392 428.256 34.4324C426.233 33.5256 423.873 33.0722 421.176 33.0722C418.734 33.0722 416.467 33.5256 414.374 34.4324C412.282 35.3392 410.468 36.6529 408.934 38.3735C407.399 40.0709 406.202 42.117 405.341 44.5119C404.481 46.9068 404.051 49.5807 404.051 52.5337V53.9287C404.051 56.5097 404.469 58.9162 405.306 61.1483C406.143 63.3805 407.341 65.322 408.899 66.9728C410.48 68.6237 412.386 69.9141 414.619 70.8442ZM412.707 49.1157H428.988V48.453C428.942 46.9417 428.639 45.5233 428.081 44.198C427.546 42.8727 426.721 41.8031 425.605 40.9893C424.489 40.1755 423.001 39.7686 421.141 39.7686C419.746 39.7686 418.502 40.0709 417.409 40.6754C416.339 41.2567 415.444 42.1054 414.723 43.2214C414.002 44.3375 413.444 45.6861 413.049 47.2672C412.909 47.8552 412.795 48.4714 412.707 49.1157ZM412.491 52.5337V53.9287C412.491 54.3415 412.505 54.7469 412.533 55.1451C412.533 55.1465 412.533 55.148 412.533 55.1495H408.131V49.1157H412.707C412.707 49.1156 412.707 49.1157 412.707 49.1157C412.563 50.1784 412.491 51.3178 412.491 52.5337Z" fill="#EC5242"/>
<path d="M408.131 49.1157V55.1495H412.533C412.533 55.148 412.533 55.1465 412.533 55.1451C412.505 54.7469 412.491 54.3415 412.491 53.9287V52.5337C412.491 51.3178 412.563 50.1784 412.707 49.1157H408.131Z" fill="#EC5242"/>
<path fill-rule="evenodd" clip-rule="evenodd" d="M480.432 20.7256H462.47V71.5069H471.224V51.9059H481.203L491.453 71.5069H500.8V71.0535L489.361 49.8892C490.869 49.2624 492.218 48.493 493.406 47.5811C495.104 46.2558 496.417 44.6282 497.347 42.6983C498.277 40.7684 498.742 38.5363 498.742 36.0018C498.742 32.6769 498.01 29.8867 496.545 27.6313C495.104 25.3527 493.023 23.6321 490.302 22.4695C487.582 21.3069 484.292 20.7256 480.432 20.7256ZM468.539 51.9059H471.224V44.9653H480.571C482.664 44.9653 484.408 44.5933 485.803 43.8492C487.198 43.1052 488.244 42.0937 488.942 40.8149C489.663 39.5128 490.023 38.048 490.023 36.4204C490.023 34.6533 489.674 33.1187 488.977 31.8166C488.303 30.4912 487.256 29.4798 485.838 28.7823C484.42 28.0615 482.618 27.7011 480.432 27.7011H471.224V44.9653H468.469L468.539 51.9059Z" fill="#EC5242"/>
<path d="M468.469 44.9653L468.539 51.9059H471.224V44.9653H468.469Z" fill="#EC5242"/>
<path fill-rule="evenodd" clip-rule="evenodd" d="M515.693 70.8442C517.948 71.751 520.471 72.2044 523.261 72.2044C525.726 72.2044 527.888 71.8673 529.748 71.193C531.632 70.5187 533.224 69.6468 534.527 68.5772C535.829 67.4844 536.887 66.345 537.7 65.1592L533.271 60.8693C532.108 62.3574 530.737 63.5084 529.155 64.3222C527.574 65.136 525.772 65.5429 523.749 65.5429C522.145 65.5429 520.715 65.2522 519.46 64.6709C518.204 64.0664 517.134 63.241 516.251 62.1947C515.367 61.1483 514.693 59.9276 514.228 58.5325C513.897 57.4701 513.69 56.3424 513.607 55.1495H538.363V51.5571C538.363 48.8367 538.026 46.3488 537.352 44.0934C536.701 41.838 535.701 39.8965 534.352 38.2689C533.027 36.618 531.353 35.3392 529.33 34.4324C527.307 33.5256 524.947 33.0722 522.25 33.0722C519.808 33.0722 517.541 33.5256 515.449 34.4324C513.356 35.3392 511.542 36.6529 510.008 38.3735C508.473 40.0709 507.276 42.117 506.415 44.5119C505.555 46.9068 505.125 49.5807 505.125 52.5337V53.9287C505.125 56.5097 505.544 58.9162 506.381 61.1483C507.218 63.3805 508.415 65.322 509.973 66.9728C511.554 68.6237 513.461 69.9141 515.693 70.8442ZM513.782 49.1157H530.062V48.453C530.016 46.9417 529.713 45.5233 529.155 44.198C528.621 42.8727 527.795 41.8031 526.679 40.9893C525.563 40.1755 524.075 39.7686 522.215 39.7686C520.82 39.7686 519.576 40.0709 518.483 40.6754C517.413 41.2567 516.518 42.1054 515.797 43.2214C515.077 44.3375 514.519 45.6861 514.123 47.2672C513.983 47.8552 513.869 48.4714 513.782 49.1157ZM513.565 52.5337V53.9287C513.565 54.3415 513.579 54.7469 513.607 55.1451C513.607 55.1465 513.607 55.148 513.607 55.1495H509.206V49.1157H513.782C513.782 49.1156 513.782 49.1158 513.782 49.1157C513.637 50.1783 513.565 51.3178 513.565 52.5337Z" fill="#EC5242"/>
<path d="M509.206 49.1157V55.1495H513.607C513.607 55.148 513.607 55.1465 513.607 55.1451C513.579 54.7469 513.565 54.3415 513.565 53.9287V52.5337C513.565 51.3178 513.637 50.1783 513.782 49.1157H509.206Z" fill="#EC5242"/>
<path fill-rule="evenodd" clip-rule="evenodd" d="M566.47 67.7821C566.137 68.1459 565.778 68.5039 565.393 68.8562C564.323 69.8328 563.033 70.6349 561.522 71.2627C560.033 71.8905 558.313 72.2044 556.36 72.2044C553.895 72.2044 551.698 71.7161 549.768 70.7396C547.838 69.7398 546.327 68.4028 545.234 66.7287C544.141 65.0313 543.595 63.1131 543.595 60.9739C543.595 58.9743 543.967 57.2072 544.711 55.6726C545.478 54.1148 546.594 52.8127 548.059 51.7664C549.547 50.72 551.361 49.9295 553.5 49.3947C555.639 48.8367 558.08 48.5577 560.824 48.5577H566.195V53.7544H561.452C559.894 53.7544 558.522 53.9055 557.336 54.2078C556.15 54.4868 555.162 54.9053 554.372 55.4633C553.581 56.0214 552.988 56.6957 552.593 57.4862C552.198 58.2768 552 59.172 552 60.1718C552 61.1716 552.233 62.09 552.698 62.9271C553.163 63.7409 553.837 64.3803 554.72 64.8453C555.627 65.3104 556.72 65.5429 557.999 65.5429C559.72 65.5429 561.219 65.1941 562.498 64.4965C563.8 63.7758 564.823 62.9038 565.567 61.8808C565.815 61.532 566.025 61.1897 566.195 60.8538V53.7544H567.486L567.416 48.5577H566.195V45.9419C566.195 44.5933 565.951 43.4307 565.463 42.4541C564.974 41.4776 564.23 40.7219 563.23 40.1871C562.254 39.6523 561.022 39.3849 559.534 39.3849C558.162 39.3849 556.976 39.6175 555.976 40.0825C554.976 40.5475 554.197 41.1753 553.639 41.9659C553.081 42.7564 552.802 43.6516 552.802 44.6514H544.432C544.432 43.1633 544.792 41.7217 545.513 40.3266C546.234 38.9315 547.28 37.6876 548.652 36.5948C550.024 35.5019 551.663 34.6416 553.57 34.0138C555.476 33.3861 557.615 33.0722 559.987 33.0722C562.824 33.0722 565.335 33.5488 567.52 34.5021C569.729 35.4554 571.462 36.897 572.717 38.8269C573.996 40.7335 574.635 43.1284 574.635 46.0116V62.7876C574.635 64.5082 574.752 66.0544 574.984 67.4262C575.24 68.7748 575.6 69.949 576.065 70.9488V71.5069H567.451C567.055 70.6001 566.741 69.4491 566.509 68.054C566.496 67.9632 566.483 67.8726 566.47 67.7821Z" fill="#EC5242"/>
<path d="M567.486 53.7544L567.416 48.5577H566.195V53.7544H567.486Z" fill="#EC5242"/>
<path fill-rule="evenodd" clip-rule="evenodd" d="M638.042 39.9081V33.7697H631.311V24.5272H622.905V33.7697H616.767V39.9081H622.905V61.6017C622.905 64.1827 623.324 66.252 624.161 67.8099C624.998 69.3677 626.161 70.4954 627.649 71.193C629.137 71.8673 630.846 72.2044 632.776 72.2044C633.962 72.2044 635.008 72.123 635.915 71.9603C636.845 71.7975 637.659 71.6115 638.356 71.4022L638.321 64.9848C637.996 65.0546 637.566 65.1243 637.031 65.1941C636.496 65.2638 635.938 65.2987 635.357 65.2987C634.543 65.2987 633.834 65.1941 633.229 64.9848C632.625 64.7756 632.148 64.3687 631.799 63.7641C631.474 63.1363 631.311 62.2412 631.311 61.0786V39.9081H638.042ZM631.311 39.9081V33.7697H622.905V39.9081H631.311Z" fill="#EC5242"/>
<path d="M631.311 39.9081V33.7697H622.905V39.9081H631.311Z" fill="#EC5242"/>
<path d="M346.866 120.188H353.842C353.618 122.848 352.874 125.22 351.609 127.303C350.344 129.368 348.568 130.996 346.28 132.186C343.992 133.377 341.211 133.972 337.938 133.972C335.426 133.972 333.166 133.526 331.157 132.633C329.148 131.721 327.428 130.438 325.996 128.782C324.563 127.108 323.466 125.09 322.703 122.728C321.959 120.365 321.587 117.724 321.587 114.803V111.427C321.587 108.507 321.968 105.866 322.731 103.503C323.512 101.141 324.628 99.1226 326.079 97.4485C327.53 95.7558 329.269 94.463 331.297 93.5702C333.343 92.6773 335.64 92.2309 338.189 92.2309C341.425 92.2309 344.16 92.8261 346.392 94.0166C348.624 95.2071 350.354 96.8533 351.581 98.9552C352.828 101.057 353.59 103.466 353.869 106.182H346.894C346.708 104.433 346.299 102.936 345.666 101.69C345.052 100.443 344.141 99.4946 342.932 98.8436C341.723 98.174 340.142 97.8391 338.189 97.8391C336.589 97.8391 335.194 98.1367 334.003 98.732C332.813 99.3272 331.818 100.201 331.018 101.355C330.218 102.508 329.613 103.931 329.204 105.624C328.814 107.298 328.618 109.214 328.618 111.371V114.803C328.618 116.85 328.795 118.71 329.148 120.384C329.52 122.039 330.079 123.462 330.823 124.653C331.585 125.843 332.552 126.764 333.724 127.415C334.896 128.066 336.301 128.392 337.938 128.392C339.928 128.392 341.537 128.075 342.765 127.443C344.011 126.81 344.95 125.89 345.583 124.681C346.234 123.453 346.661 121.956 346.866 120.188Z" fill="#272A31"/>
<path d="M358.25 118.654V118.012C358.25 115.836 358.566 113.818 359.199 111.957C359.831 110.079 360.743 108.451 361.933 107.075C363.142 105.68 364.612 104.601 366.342 103.838C368.09 103.057 370.062 102.666 372.257 102.666C374.47 102.666 376.442 103.057 378.172 103.838C379.92 104.601 381.399 105.68 382.608 107.075C383.817 108.451 384.738 110.079 385.371 111.957C386.003 113.818 386.319 115.836 386.319 118.012V118.654C386.319 120.83 386.003 122.848 385.371 124.709C384.738 126.569 383.817 128.196 382.608 129.591C381.399 130.968 379.93 132.047 378.2 132.828C376.47 133.591 374.507 133.972 372.312 133.972C370.099 133.972 368.118 133.591 366.369 132.828C364.64 132.047 363.17 130.968 361.961 129.591C360.752 128.196 359.831 126.569 359.199 124.709C358.566 122.848 358.25 120.83 358.25 118.654ZM364.974 118.012V118.654C364.974 120.012 365.114 121.295 365.393 122.504C365.672 123.713 366.109 124.774 366.704 125.685C367.299 126.597 368.062 127.313 368.992 127.834C369.922 128.354 371.029 128.615 372.312 128.615C373.559 128.615 374.638 128.354 375.549 127.834C376.479 127.313 377.242 126.597 377.837 125.685C378.432 124.774 378.869 123.713 379.148 122.504C379.446 121.295 379.595 120.012 379.595 118.654V118.012C379.595 116.673 379.446 115.408 379.148 114.217C378.869 113.008 378.423 111.939 377.809 111.009C377.214 110.079 376.451 109.353 375.521 108.832C374.61 108.293 373.522 108.023 372.257 108.023C370.992 108.023 369.894 108.293 368.964 108.832C368.053 109.353 367.299 110.079 366.704 111.009C366.109 111.939 365.672 113.008 365.393 114.217C365.114 115.408 364.974 116.673 364.974 118.012Z" fill="#272A31"/>
<path d="M568.35 128.615C569.448 128.615 570.434 128.401 571.308 127.973C572.201 127.527 572.917 126.913 573.456 126.132C574.015 125.35 574.321 124.448 574.377 123.425H580.711C580.674 125.378 580.097 127.155 578.981 128.754C577.865 130.354 576.386 131.628 574.545 132.577C572.703 133.507 570.666 133.972 568.434 133.972C566.128 133.972 564.119 133.581 562.407 132.8C560.696 132 559.273 130.903 558.138 129.508C557.004 128.113 556.148 126.504 555.571 124.681C555.013 122.858 554.734 120.905 554.734 118.821V117.845C554.734 115.761 555.013 113.808 555.571 111.985C556.148 110.144 557.004 108.526 558.138 107.13C559.273 105.735 560.696 104.647 562.407 103.866C564.119 103.066 566.118 102.666 568.406 102.666C570.824 102.666 572.945 103.15 574.768 104.117C576.591 105.066 578.023 106.396 579.065 108.107C580.125 109.8 580.674 111.771 580.711 114.022H574.377C574.321 112.906 574.042 111.902 573.54 111.009C573.057 110.097 572.368 109.372 571.475 108.832C570.601 108.293 569.55 108.023 568.323 108.023C566.965 108.023 565.839 108.302 564.946 108.86C564.054 109.4 563.356 110.144 562.854 111.092C562.352 112.023 561.989 113.074 561.766 114.245C561.561 115.399 561.459 116.598 561.459 117.845V118.821C561.459 120.068 561.561 121.277 561.766 122.449C561.97 123.62 562.324 124.671 562.826 125.601C563.347 126.513 564.054 127.248 564.946 127.806C565.839 128.345 566.974 128.615 568.35 128.615Z" fill="#272A31"/>
<path d="M657.58 128.057V133.414H630.348V128.81L643.574 114.385C645.025 112.748 646.169 111.334 647.006 110.144C647.843 108.953 648.429 107.884 648.763 106.935C649.117 105.968 649.294 105.028 649.294 104.117C649.294 102.834 649.052 101.708 648.568 100.741C648.103 99.7551 647.415 98.9831 646.503 98.4251C645.592 97.8484 644.485 97.5601 643.183 97.5601C641.676 97.5601 640.411 97.8856 639.388 98.5367C638.365 99.1877 637.593 100.09 637.073 101.243C636.552 102.378 636.291 103.68 636.291 105.149H629.567C629.567 102.787 630.106 100.629 631.185 98.6762C632.264 96.7045 633.827 95.142 635.873 93.9887C637.919 92.8168 640.384 92.2309 643.267 92.2309C645.983 92.2309 648.289 92.6866 650.186 93.5981C652.084 94.5095 653.525 95.8023 654.511 97.4764C655.516 99.1505 656.018 101.132 656.018 103.419C656.018 104.684 655.813 105.94 655.404 107.186C654.995 108.433 654.409 109.679 653.646 110.925C652.902 112.153 652.019 113.39 650.996 114.636C649.972 115.864 648.847 117.11 647.619 118.375L638.83 128.057H657.58Z" fill="#272A31"/>
<path d="M690.058 128.057V133.414H662.826V128.81L676.051 114.385C677.502 112.748 678.646 111.334 679.483 110.144C680.32 108.953 680.906 107.884 681.241 106.935C681.595 105.968 681.771 105.028 681.771 104.117C681.771 102.834 681.529 101.708 681.046 100.741C680.581 99.7551 679.892 98.9831 678.981 98.4251C678.07 97.8484 676.963 97.5601 675.661 97.5601C674.154 97.5601 672.889 97.8856 671.866 98.5367C670.843 99.1877 670.071 100.09 669.55 101.243C669.029 102.378 668.769 103.68 668.769 105.149H662.045C662.045 102.787 662.584 100.629 663.663 98.6762C664.742 96.7045 666.304 95.142 668.35 93.9887C670.397 92.8168 672.861 92.2309 675.744 92.2309C678.46 92.2309 680.767 92.6866 682.664 93.5981C684.561 94.5095 686.003 95.8023 686.989 97.4764C687.993 99.1505 688.496 101.132 688.496 103.419C688.496 104.684 688.291 105.94 687.882 107.186C687.472 108.433 686.887 109.679 686.124 110.925C685.38 112.153 684.496 113.39 683.473 114.636C682.45 115.864 681.325 117.11 680.097 118.375L671.308 128.057H690.058Z" fill="#272A31"/>
<path fill-rule="evenodd" clip-rule="evenodd" d="M219.718 133.414H224.517C227.307 133.414 229.827 132.967 232.078 132.075C234.347 131.163 236.301 129.87 237.938 128.196C239.574 126.504 240.83 124.476 241.704 122.114C242.579 119.751 243.016 117.11 243.016 114.19V112.041C243.016 109.121 242.579 106.479 241.704 104.117C240.83 101.755 239.574 99.7272 237.938 98.0344C236.319 96.3417 234.394 95.049 232.162 94.1561C229.93 93.2446 227.465 92.7889 224.768 92.7889H219.718V98.3693H215.672V92.7889H212.714V133.414H215.839H219.718ZM219.718 127.861V98.3693H224.768C226.572 98.3693 228.163 98.6669 229.539 99.2621C230.934 99.8574 232.106 100.732 233.055 101.885C234.022 103.038 234.747 104.461 235.231 106.154C235.733 107.847 235.984 109.79 235.984 111.985V114.19C235.984 117.017 235.547 119.454 234.673 121.5C233.817 123.546 232.534 125.118 230.823 126.215C229.13 127.313 227.028 127.861 224.517 127.861H219.718Z" fill="#272A31"/>
<path d="M215.672 92.7889V98.3693H219.718V92.7889H215.672Z" fill="#272A31"/>
<path fill-rule="evenodd" clip-rule="evenodd" d="M256.632 132.884C258.436 133.609 260.454 133.972 262.686 133.972C264.658 133.972 266.388 133.702 267.876 133.163C269.383 132.623 270.657 131.926 271.699 131.07C272.74 130.196 273.587 129.284 274.238 128.336L270.694 124.904C269.764 126.094 268.667 127.015 267.402 127.666C266.137 128.317 264.695 128.643 263.077 128.643C261.794 128.643 260.65 128.41 259.645 127.945C258.641 127.462 257.785 126.801 257.078 125.964C256.371 125.127 255.832 124.151 255.46 123.034C255.195 122.184 255.029 121.282 254.963 120.328H274.768V117.454C274.768 115.278 274.498 113.287 273.959 111.483C273.438 109.679 272.638 108.126 271.559 106.824C270.499 105.503 269.16 104.48 267.541 103.754C265.923 103.029 264.035 102.666 261.877 102.666C259.924 102.666 258.111 103.029 256.436 103.754C254.762 104.48 253.311 105.531 252.084 106.907C250.856 108.265 249.898 109.902 249.21 111.818C248.522 113.734 248.177 115.873 248.177 118.235V119.351C248.177 121.416 248.512 123.341 249.182 125.127C249.852 126.913 250.81 128.466 252.056 129.787C253.321 131.107 254.846 132.14 256.632 132.884ZM255.103 115.501H268.127V114.971C268.09 113.762 267.848 112.627 267.402 111.567C266.974 110.507 266.314 109.651 265.421 109C264.528 108.349 263.337 108.023 261.849 108.023C260.733 108.023 259.738 108.265 258.864 108.749C258.008 109.214 257.292 109.893 256.715 110.786C256.139 111.678 255.692 112.757 255.376 114.022C255.264 114.493 255.173 114.986 255.103 115.501ZM254.93 118.235V119.351C254.93 119.682 254.941 120.009 254.963 120.328H251.442V115.501H255.103C254.987 116.351 254.93 117.263 254.93 118.235Z" fill="#272A31"/>
<path fill-rule="evenodd" clip-rule="evenodd" d="M290.356 125.02L289.444 128.085L288.97 133.414H287.324L276.777 103.224H283.78L290.356 125.02ZM291.676 133.414L291.314 128.196L290.356 125.02L296.838 103.224H303.814L293.323 133.414H291.676Z" fill="#272A31"/>
<path d="M288.97 133.414H291.676L291.314 128.196L290.356 125.02L289.444 128.085L288.97 133.414Z" fill="#272A31"/>
<path fill-rule="evenodd" clip-rule="evenodd" d="M398.624 133.414V111.959C398.839 111.543 399.081 111.152 399.349 110.786C399.982 109.949 400.754 109.288 401.665 108.805C402.577 108.321 403.609 108.079 404.762 108.079C405.934 108.079 406.911 108.265 407.692 108.637C408.492 108.991 409.096 109.595 409.506 110.451C409.933 111.288 410.147 112.432 410.147 113.883V133.414H416.9V113.911C416.9 111.846 416.676 110.107 416.23 108.693C415.783 107.261 415.132 106.098 414.277 105.205C413.44 104.312 412.426 103.671 411.236 103.28C410.064 102.871 408.752 102.666 407.301 102.666C405.497 102.666 403.86 103.02 402.391 103.726C400.921 104.415 399.656 105.401 398.596 106.684C398.548 106.743 398.501 106.803 398.454 106.863L398.233 103.224H391.9V133.414H398.624ZM398.624 109.669V111.959C398.347 112.494 398.115 113.07 397.926 113.687C397.592 114.785 397.424 115.957 397.424 117.203L395.248 117.175C395.266 115.036 395.564 113.074 396.141 111.288C396.661 109.725 397.353 108.355 398.216 107.177C398.294 107.071 398.373 106.966 398.454 106.863L398.624 109.669Z" fill="#272A31"/>
<path d="M395.248 117.175L397.424 117.203C397.424 115.957 397.592 114.785 397.926 113.687C398.115 113.07 398.347 112.494 398.624 111.959V109.669L398.454 106.863C398.373 106.966 398.294 107.071 398.216 107.177C397.353 108.355 396.661 109.725 396.141 111.288C395.564 113.074 395.266 115.036 395.248 117.175Z" fill="#272A31"/>
<path fill-rule="evenodd" clip-rule="evenodd" d="M426.135 133.414H432.859V108.135H439.081V103.224H432.859V100.322C432.859 99.2621 433.045 98.3693 433.417 97.6438C433.808 96.9184 434.366 96.3696 435.092 95.9976C435.836 95.607 436.719 95.4117 437.742 95.4117C438.244 95.4117 438.709 95.4303 439.137 95.4675C439.584 95.5047 439.993 95.5698 440.365 95.6628L440.532 90.4731C439.919 90.3056 439.286 90.1847 438.635 90.1103C437.984 90.0173 437.324 89.9708 436.654 89.9708C434.496 89.9708 432.627 90.3708 431.046 91.1706C429.465 91.9519 428.246 93.1144 427.391 94.6583C426.554 96.1836 426.135 98.0716 426.135 100.322V103.224H421.503V108.135H426.135V133.414ZM426.135 108.135H432.859V103.224H426.135V108.135Z" fill="#272A31"/>
<path d="M426.135 108.135H432.859V103.224H426.135V108.135Z" fill="#272A31"/>
<path fill-rule="evenodd" clip-rule="evenodd" d="M450.549 132.884C452.353 133.609 454.372 133.972 456.604 133.972C458.576 133.972 460.305 133.702 461.794 133.163C463.3 132.623 464.574 131.926 465.616 131.07C466.658 130.196 467.504 129.284 468.155 128.336L464.612 124.904C463.682 126.094 462.584 127.015 461.319 127.666C460.054 128.317 458.613 128.643 456.994 128.643C455.711 128.643 454.567 128.41 453.562 127.945C452.558 127.462 451.702 126.801 450.996 125.964C450.289 125.127 449.749 124.151 449.377 123.034C449.113 122.184 448.947 121.282 448.88 120.328H468.685V117.454C468.685 115.278 468.416 113.287 467.876 111.483C467.355 109.679 466.555 108.126 465.477 106.824C464.416 105.503 463.077 104.48 461.459 103.754C459.84 103.029 457.952 102.666 455.795 102.666C453.842 102.666 452.028 103.029 450.354 103.754C448.68 104.48 447.229 105.531 446.001 106.907C444.773 108.265 443.815 109.902 443.127 111.818C442.439 113.734 442.095 115.873 442.095 118.235V119.351C442.095 121.416 442.43 123.341 443.099 125.127C443.769 126.913 444.727 128.466 445.973 129.787C447.238 131.107 448.763 132.14 450.549 132.884ZM449.02 115.501H462.045V114.971C462.007 113.762 461.766 112.627 461.319 111.567C460.891 110.507 460.231 109.651 459.338 109C458.445 108.349 457.255 108.023 455.767 108.023C454.651 108.023 453.656 108.265 452.781 108.749C451.926 109.214 451.209 109.893 450.633 110.786C450.056 111.678 449.61 112.757 449.294 114.022C449.181 114.493 449.09 114.986 449.02 115.501ZM448.847 118.235V119.351C448.847 119.682 448.858 120.009 448.88 120.328H445.359V115.501H449.02C448.905 116.351 448.847 117.263 448.847 118.235Z" fill="#272A31"/>
<path d="M445.359 115.501V120.328H448.88C448.858 120.009 448.847 119.682 448.847 119.351V118.235C448.847 117.263 448.905 116.351 449.02 115.501H445.359Z" fill="#272A31"/>
<path fill-rule="evenodd" clip-rule="evenodd" d="M480.683 133.414V112.78C480.986 112.074 481.386 111.465 481.883 110.953C482.478 110.339 483.213 109.874 484.087 109.558C484.961 109.223 485.975 109.056 487.128 109.056C487.593 109.056 488.058 109.074 488.523 109.111C489.007 109.149 489.454 109.204 489.863 109.279L489.919 103.029C489.677 102.936 489.314 102.852 488.83 102.778C488.365 102.703 487.928 102.666 487.519 102.666C486.012 102.666 484.682 103.01 483.529 103.699C482.394 104.387 481.446 105.345 480.683 106.572C480.643 106.638 480.604 106.704 480.565 106.771L480.376 103.224H473.959V133.414H480.683ZM480.683 108.972V112.78C480.634 112.894 480.587 113.01 480.544 113.129C480.227 113.985 480.041 114.943 479.986 116.003L478.451 116.115C478.451 114.217 478.637 112.46 479.009 110.841C479.334 109.425 479.802 108.159 480.413 107.042C480.463 106.95 480.514 106.86 480.565 106.771L480.683 108.972Z" fill="#272A31"/>
<path d="M479.986 116.003C480.041 114.943 480.227 113.985 480.544 113.129C480.587 113.01 480.634 112.894 480.683 112.78V108.972L480.565 106.771C480.514 106.86 480.463 106.95 480.413 107.042C479.802 108.159 479.334 109.425 479.009 110.841C478.637 112.46 478.451 114.217 478.451 116.115L479.986 116.003Z" fill="#272A31"/>
<path fill-rule="evenodd" clip-rule="evenodd" d="M500.828 132.884C502.632 133.609 504.651 133.972 506.883 133.972C508.855 133.972 510.584 133.702 512.073 133.163C513.579 132.623 514.853 131.926 515.895 131.07C516.937 130.196 517.783 129.284 518.434 128.336L514.891 124.904C513.961 126.094 512.863 127.015 511.598 127.666C510.333 128.317 508.892 128.643 507.273 128.643C505.99 128.643 504.846 128.41 503.842 127.945C502.837 127.462 501.981 126.801 501.275 125.964C500.568 125.127 500.028 124.151 499.656 123.034C499.392 122.184 499.226 121.282 499.16 120.328H518.964V117.454C518.964 115.278 518.695 113.287 518.155 111.483C517.634 109.679 516.834 108.126 515.756 106.824C514.695 105.503 513.356 104.48 511.738 103.754C510.119 103.029 508.231 102.666 506.074 102.666C504.121 102.666 502.307 103.029 500.633 103.754C498.959 104.48 497.508 105.531 496.28 106.907C495.052 108.265 494.094 109.902 493.406 111.818C492.718 113.734 492.374 115.873 492.374 118.235V119.351C492.374 121.416 492.709 123.341 493.378 125.127C494.048 126.913 495.006 128.466 496.252 129.787C497.517 131.107 499.042 132.14 500.828 132.884ZM499.299 115.501H512.324V114.971C512.286 113.762 512.045 112.627 511.598 111.567C511.17 110.507 510.51 109.651 509.617 109C508.724 108.349 507.534 108.023 506.046 108.023C504.93 108.023 503.935 108.265 503.06 108.749C502.205 109.214 501.488 109.893 500.912 110.786C500.335 111.678 499.889 112.757 499.573 114.022C499.46 114.493 499.369 114.986 499.299 115.501ZM499.126 118.235V119.351C499.126 119.682 499.137 120.009 499.16 120.328H495.638V115.501H499.299C499.184 116.351 499.126 117.263 499.126 118.235Z" fill="#272A31"/>
<path d="M495.638 115.501V120.328H499.16C499.137 120.009 499.126 119.682 499.126 119.351V118.235C499.126 117.263 499.184 116.351 499.299 115.501H495.638Z" fill="#272A31"/>
<path fill-rule="evenodd" clip-rule="evenodd" d="M530.878 133.414V111.959C531.093 111.543 531.335 111.152 531.604 110.786C532.236 109.949 533.008 109.288 533.92 108.805C534.831 108.321 535.863 108.079 537.017 108.079C538.189 108.079 539.165 108.265 539.946 108.637C540.746 108.991 541.351 109.595 541.76 110.451C542.188 111.288 542.402 112.432 542.402 113.883V133.414H549.154V113.911C549.154 111.846 548.931 110.107 548.484 108.693C548.038 107.261 547.387 106.098 546.531 105.205C545.694 104.312 544.68 103.671 543.49 103.28C542.318 102.871 541.007 102.666 539.556 102.666C537.752 102.666 536.115 103.02 534.645 103.726C533.176 104.415 531.911 105.401 530.85 106.684C530.803 106.743 530.755 106.803 530.708 106.863L530.488 103.224H524.154V133.414H530.878ZM530.878 109.669V111.959C530.602 112.494 530.369 113.07 530.181 113.687C529.846 114.785 529.679 115.957 529.679 117.203L527.502 117.175C527.521 115.036 527.818 113.074 528.395 111.288C528.916 109.725 529.608 108.355 530.47 107.177C530.548 107.071 530.628 106.966 530.708 106.863L530.878 109.669Z" fill="#272A31"/>
<path d="M527.502 117.175L529.679 117.203C529.679 115.957 529.846 114.785 530.181 113.687C530.369 113.07 530.602 112.494 530.878 111.959V109.669L530.708 106.863C530.628 106.966 530.548 107.071 530.47 107.177C529.608 108.355 528.916 109.725 528.395 111.288C527.818 113.074 527.521 115.036 527.502 117.175Z" fill="#272A31"/>
<path fill-rule="evenodd" clip-rule="evenodd" d="M593.127 132.884C594.932 133.609 596.95 133.972 599.182 133.972C601.154 133.972 602.884 133.702 604.372 133.163C605.878 132.623 607.153 131.926 608.194 131.07C609.236 130.196 610.082 129.284 610.733 128.336L607.19 124.904C606.26 126.094 605.162 127.015 603.897 127.666C602.632 128.317 601.191 128.643 599.573 128.643C598.289 128.643 597.145 128.41 596.141 127.945C595.136 127.462 594.281 126.801 593.574 125.964C592.867 125.127 592.327 124.151 591.955 123.034C591.691 122.184 591.525 121.282 591.459 120.328H611.263V117.454C611.263 115.278 610.994 113.287 610.454 111.483C609.933 109.679 609.134 108.126 608.055 106.824C606.994 105.503 605.655 104.48 604.037 103.754C602.419 103.029 600.531 102.666 598.373 102.666C596.42 102.666 594.606 103.029 592.932 103.754C591.258 104.48 589.807 105.531 588.579 106.907C587.352 108.265 586.394 109.902 585.705 111.818C585.017 113.734 584.673 115.873 584.673 118.235V119.351C584.673 121.416 585.008 123.341 585.677 125.127C586.347 126.913 587.305 128.466 588.551 129.787C589.816 131.107 591.342 132.14 593.127 132.884ZM591.598 115.501H604.623V114.971C604.586 113.762 604.344 112.627 603.897 111.567C603.47 110.507 602.809 109.651 601.916 109C601.023 108.349 599.833 108.023 598.345 108.023C597.229 108.023 596.234 108.265 595.359 108.749C594.504 109.214 593.788 109.893 593.211 110.786C592.634 111.678 592.188 112.757 591.872 114.022C591.759 114.493 591.668 114.986 591.598 115.501ZM591.425 118.235V119.351C591.425 119.682 591.437 120.009 591.459 120.328H587.938V115.501H591.598C591.483 116.351 591.425 117.263 591.425 118.235Z" fill="#272A31"/>
<path d="M587.938 115.501V120.328H591.459C591.437 120.009 591.425 119.682 591.425 119.351V118.235C591.425 117.263 591.483 116.351 591.598 115.501H587.938Z" fill="#272A31"/>
<path d="M251.442 115.501V120.328H254.963C254.941 120.009 254.93 119.682 254.93 119.351V118.235C254.93 117.263 254.987 116.351 255.103 115.501H251.442Z" fill="#272A31"/>
</svg>
